<?xml version="1.0" standalone="no"?>
<!DOCTYPE svg PUBLIC "-//W3C//DTD SVG 20010904//EN"
 "http://www.w3.org/TR/2001/REC-SVG-20010904/DTD/svg10.dtd">
<svg version="1.0" xmlns="http://www.w3.org/2000/svg"
 width="700.000000pt" height="700.000000pt" viewBox="0 0 700.000000 700.000000"
 preserveAspectRatio="xMidYMid meet">
<metadata>
Created by potrace 1.11, written by Peter Selinger 2001-2013
</metadata>
<g transform="translate(0.000000,700.000000) scale(0.100000,-0.100000)"
fill="#000000" stroke="none">
<path d="M3340 6096 c0 -50 -28 -61 -140 -56 -113 6 -244 -5 -293 -23 -60 -23
-99 -26 -151 -15 -40 8 -52 6 -98 -15 -48 -23 -145 -52 -208 -63 -140 -25
-360 -125 -360 -164 0 -33 -36 -63 -124 -104 -50 -24 -107 -56 -126 -73 -19
-16 -70 -52 -114 -79 -43 -27 -97 -68 -120 -92 -22 -23 -75 -66 -116 -94 -41
-29 -104 -77 -138 -107 -68 -58 -152 -167 -152 -195 0 -29 -18 -53 -45 -60
-22 -6 -25 -12 -25 -50 0 -28 -7 -52 -20 -69 -24 -30 -25 -41 -5 -33 13 4 13
2 5 -14 -5 -10 -15 -22 -20 -25 -6 -4 -8 -21 -5 -39 6 -28 2 -36 -31 -64 -42
-36 -75 -82 -68 -94 3 -4 14 2 25 13 40 40 31 9 -12 -46 -59 -76 -84 -114 -97
-153 l-11 -33 26 21 c45 35 45 22 3 -56 -39 -70 -41 -77 -26 -93 18 -20 20
-44 6 -71 -10 -18 -14 -66 -11 -130 l2 -35 18 23 c32 37 44 28 35 -25 -4 -27
-8 -97 -9 -158 -1 -60 -5 -121 -9 -134 -25 -74 -127 -212 -227 -306 -197 -185
-293 -292 -380 -423 -203 -307 -266 -501 -262 -812 1 -84 7 -128 32 -220 17
-63 47 -172 65 -242 29 -110 41 -138 85 -200 27 -40 94 -137 147 -215 52 -78
108 -152 123 -165 88 -79 185 -144 363 -246 42 -24 100 -41 162 -48 22 -3 59
-9 80 -14 121 -27 303 37 346 120 23 45 32 122 18 161 -19 54 -76 94 -131 90
-25 -2 -57 -60 -57 -104 0 -34 -4 -39 -37 -54 -69 -28 -169 -17 -245 30 -46
27 -206 140 -233 164 -45 40 -242 302 -271 363 -47 94 -114 293 -151 445 -3
11 -6 72 -8 135 -6 204 31 340 146 543 74 132 86 145 270 308 41 37 90 79 109
95 19 16 44 37 55 47 39 36 226 159 273 179 26 12 61 21 78 19 21 -1 46 8 76
28 56 38 60 38 52 5 -6 -24 -5 -25 16 -14 12 6 24 10 26 7 2 -2 5 -29 5 -60 2
-66 12 -71 54 -27 34 36 77 40 98 10 8 -11 25 -48 38 -81 13 -33 41 -81 62
-106 44 -54 47 -82 14 -185 -13 -40 -22 -86 -20 -101 5 -67 39 -125 96 -161
24 -16 26 -16 45 4 32 35 34 75 7 143 -6 13 -2 17 18 17 25 0 32 11 43 75 12
62 19 67 91 63 l66 -3 14 59 c18 81 24 87 97 84 94 -2 121 7 154 56 l29 42
-21 27 c-19 26 -19 30 -6 54 21 37 63 66 97 65 15 0 51 6 79 14 73 21 89 23
163 25 37 1 79 -5 94 -12 27 -12 30 -11 61 26 24 28 41 39 65 41 35 2 52 -19
32 -39 -37 -37 14 -30 107 15 64 30 80 31 137 8 26 -11 37 -10 77 9 80 36 113
22 98 -43 -3 -17 -5 -44 -2 -61 2 -16 5 -75 7 -130 4 -120 1 -124 -96 -155
-68 -22 -69 -23 -55 -44 12 -20 12 -25 -3 -43 -9 -11 -30 -28 -48 -37 -40 -20
-46 -31 -39 -62 9 -36 51 -31 164 20 53 25 104 46 112 47 31 6 61 -14 80 -52
25 -48 44 -49 114 -11 67 38 121 40 219 8 112 -37 136 -33 167 25 14 25 33 21
106 -24 34 -20 72 -37 84 -37 20 0 22 3 15 37 -8 44 -35 84 -75 113 -15 11
-31 33 -35 48 -4 18 -23 39 -57 62 -58 39 -94 88 -103 142 -17 93 77 43 190
-101 43 -56 87 -104 97 -107 10 -3 24 -11 30 -17 68 -64 143 -91 187 -68 13 7
22 8 26 1 8 -13 70 -29 125 -31 25 -2 58 -8 74 -15 54 -22 116 20 116 79 0 28
-32 73 -58 81 -9 3 -28 30 -41 59 -24 56 -46 76 -89 83 -14 3 -38 15 -53 27
-70 56 -86 67 -126 87 -40 20 -42 23 -27 38 13 12 39 16 113 18 65 1 107 7
127 17 41 22 100 87 108 119 3 15 14 29 25 33 10 3 27 21 37 40 22 42 28 43
50 10 26 -39 48 -33 58 16 7 41 17 57 41 73 22 14 25 14 39 0 9 -8 19 -26 22
-40 7 -29 23 -30 93 -4 l54 19 35 -36 c18 -20 51 -59 72 -87 20 -28 47 -60 60
-71 12 -11 53 -58 90 -105 37 -47 85 -98 106 -115 21 -16 45 -37 53 -46 36
-35 87 -62 218 -115 149 -59 198 -67 255 -40 39 19 53 44 64 116 3 25 8 52 9
61 2 9 6 34 9 55 4 22 11 64 16 94 12 70 18 123 25 235 4 50 13 123 21 164 8
40 14 81 14 91 0 10 13 32 29 48 17 16 33 42 36 58 4 16 17 52 30 79 13 28 27
68 31 90 4 22 20 66 37 98 28 56 29 59 16 105 -17 59 -16 63 25 105 20 21 37
53 45 83 26 100 41 132 74 151 56 33 180 82 247 99 116 28 185 84 231 188 32
73 8 97 -101 102 -94 3 -290 13 -395 20 -79 4 -109 11 -144 30 -24 13 -50 24
-57 24 -13 0 -19 18 -15 48 3 17 -67 90 -105 110 -18 9 -47 37 -66 62 -19 25
-41 45 -49 45 -15 0 -16 -6 -4 -43 l6 -22 -34 20 c-19 11 -42 29 -52 40 -10
11 -31 20 -48 20 -19 0 -38 9 -52 24 -51 55 -142 76 -216 50 -31 -10 -44 -10
-83 4 -41 15 -45 19 -41 44 5 26 4 27 -21 18 -42 -16 -63 -12 -97 21 -44 42
-90 61 -165 65 -41 2 -75 10 -96 24 l-33 20 -27 -40 c-14 -22 -30 -40 -35 -40
-5 0 -36 20 -70 46 -52 39 -65 44 -93 39 -26 -5 -41 -1 -68 19 -49 35 -89 57
-123 67 -26 7 -30 5 -43 -26 -8 -21 -21 -35 -32 -35 -9 0 -53 14 -96 31 -71
28 -81 29 -91 15 -11 -14 -20 -12 -89 14 -43 17 -80 30 -82 30 -3 0 -4 -16 -3
-34 2 -19 1 -37 -2 -40 -7 -8 -154 49 -205 79 -32 19 -44 21 -53 12 -9 -9 -19
-4 -44 24 -28 30 -131 89 -159 89 -5 0 -4 -9 2 -20 17 -32 -18 -40 -42 -9 -58
72 -79 91 -97 86 -13 -3 -29 5 -47 24 -35 37 -44 36 -44 0 l0 -29 -60 29 c-34
16 -77 47 -98 69 -42 46 -52 49 -52 16z"/>
</g>
</svg>
