<?xml version="1.0" encoding="UTF-8" standalone="no"?>
<svg
   xmlns:dc="http://purl.org/dc/elements/1.1/"
   xmlns:cc="http://creativecommons.org/ns#"
   xmlns:rdf="http://www.w3.org/1999/02/22-rdf-syntax-ns#"
   xmlns:svg="http://www.w3.org/2000/svg"
   xmlns="http://www.w3.org/2000/svg"
   xmlns:sodipodi="http://sodipodi.sourceforge.net/DTD/sodipodi-0.dtd"
   xmlns:inkscape="http://www.inkscape.org/namespaces/inkscape"
   version="1.1"
   id="Capa_1"
   x="0px"
   y="0px"
   width="600"
   height="600"
   viewBox="0 0 600.00002 600.00002"
   xml:space="preserve"
   sodipodi:docname="favicon.svg"
   inkscape:version="1.0.2 (e86c870879, 2021-01-15)"><metadata
   id="metadata130"><rdf:RDF><cc:Work
       rdf:about=""><dc:format>image/svg+xml</dc:format><dc:type
         rdf:resource="http://purl.org/dc/dcmitype/StillImage" /><dc:title></dc:title></cc:Work></rdf:RDF></metadata><defs
   id="defs128" /><sodipodi:namedview
   pagecolor="#ffffff"
   bordercolor="#666666"
   borderopacity="1"
   objecttolerance="10"
   gridtolerance="10"
   guidetolerance="10"
   inkscape:pageopacity="0"
   inkscape:pageshadow="2"
   inkscape:window-width="1643"
   inkscape:window-height="1012"
   id="namedview126"
   showgrid="false"
   inkscape:zoom="1.3798263"
   inkscape:cx="296.7732"
   inkscape:cy="315.50096"
   inkscape:window-x="0"
   inkscape:window-y="27"
   inkscape:window-maximized="0"
   inkscape:current-layer="Capa_1"
   inkscape:document-rotation="0"
   showguides="false" />
<g
   id="g93"
   transform="translate(3.3135714,71.035868)"
   style="fill:#db7c4d;fill-opacity:1">
	<g
   id="g91"
   style="fill:#db7c4d;fill-opacity:1">
		<path
   d="m 587.084,160.075 c -14.978,-0.661 -29.947,-1.465 -44.908,-2.407 -1.734,-0.11 -3.681,-1.073 -5.022,-2.232 -1.824,-1.571 -3.815,-2.101 -5.916,-2.26 -0.192,-0.894 -0.384,-1.787 -0.575,-2.685 0.102,-0.175 0.208,-0.351 0.293,-0.535 0.331,-0.734 0.429,-2.023 0,-2.525 -0.33,-0.392 -0.971,-0.518 -1.628,-0.637 -2.297,-4.361 -6.756,-7.356 -11.607,-8.523 0.396,-0.171 0.82,-0.351 1.289,-0.555 -2.007,-2.579 -3.822,-5.035 -5.817,-7.332 -0.294,-0.338 -1.461,0.074 -2.22,0.139 0.114,0.874 0.114,1.779 0.367,2.611 0.339,1.122 0.869,2.183 1.317,3.272 -0.09,-0.02 -0.184,-0.041 -0.273,-0.065 -0.787,-0.616 -1.636,-1.179 -2.541,-1.665 -0.906,-0.486 -1.841,-0.877 -2.791,-1.188 -2.591,-3.815 -4.562,-4.851 -8.511,-3.803 -1.562,-2.276 -3.656,-4.219 -6.223,-5.589 -5.663,-3.027 -12.366,-2.611 -17.609,0.469 -0.518,-0.355 -1.061,-0.686 -1.627,-0.992 -1.987,-1.061 -4.101,-1.693 -6.234,-1.946 0.31,-1.371 0.632,-2.799 0.987,-4.354 -1.322,-0.057 -1.897,-0.265 -2.203,-0.062 -2.053,1.355 -4.076,2.562 -6.345,0.457 -1.66,-1.538 -3.158,-3.28 -4.957,-4.631 -1.249,-0.934 -2.832,-1.55 -4.361,-1.95 -2.053,-0.534 -4.199,-0.697 -6.292,-1.073 -0.444,-0.078 -0.975,-0.669 -1.244,-0.547 -4.174,1.914 -6.989,-0.502 -9.837,-3.362 -1.392,1.909 -2.648,3.574 -3.839,5.288 -1.702,2.448 -2.812,2.297 -4.909,0.359 -2.558,-2.366 -5.536,-4.288 -8.376,-6.34 -0.285,-0.208 -0.971,-0.131 -1.33,0.069 -3.758,2.084 -6.683,-0.082 -9.045,-2.33 -3.423,-3.256 -7.234,-4.749 -11.82,-4.786 -0.444,6.034 -2.705,6.981 -8.294,4.117 -3.146,-1.612 -6.61,-2.611 -10.164,-3.974 -0.432,0.616 -0.95,1.359 -1.909,2.73 -4.435,-1.722 -9.009,-3.493 -14.067,-5.455 0.171,2.729 0.338,5.341 0.465,7.336 -4.271,-1.575 -8.589,-2.991 -12.75,-4.766 -3.023,-1.289 -5.843,-3.056 -9.09,-4.794 -0.127,0.167 -0.719,0.951 -1.759,2.321 -1.819,-2.13 -3.248,-4.243 -5.108,-5.847 -1.396,-1.199 -3.346,-1.758 -5.059,-2.583 -0.968,-0.469 -1.967,-0.877 -2.93,-1.354 -1.016,-0.506 -2.004,-1.061 -3.003,-1.595 -0.208,0.249 -0.416,0.498 -0.624,0.75 0.403,1 0.812,2.003 1.272,3.15 -2.093,1.62 -3.509,0.526 -4.732,-1.077 -1.077,-1.408 -1.918,-3.011 -3.076,-4.341 -1.845,-2.113 -3.881,-4.031 -6.695,-2.46 -1.812,-1.95 -3.375,-3.639 -4.938,-5.325 -0.285,0.212 -0.571,0.429 -0.856,0.641 0.062,1.106 0.118,2.211 0.249,4.558 -3.876,-1.718 -7.442,-2.713 -10.286,-4.729 -2.742,-1.938 -4.741,-4.928 -7.042,-7.425 -0.555,0.408 -0.894,0.534 -0.901,0.677 -0.196,5.381 -0.698,6.389 -6.345,6.858 -4.439,0.367 -8.976,-0.42 -13.464,-0.73 -0.82,-0.057 -2.04,-0.706 -2.375,-0.375 -3.403,3.354 -7.548,0.673 -11.183,1.558 -3.285,0.804 -6.418,2.236 -9.694,3.089 -1.473,0.383 -3.149,0.135 -4.712,-0.012 -1.514,-0.143 -3.015,-0.478 -4.504,-0.808 -3.329,-0.734 -5.896,0.759 -8.315,2.746 -0.273,0.224 -0.6,0.44 -0.934,0.526 -6.137,1.571 -12.22,3.411 -18.425,4.606 -9.551,1.84 -18.136,5.728 -26.132,11.109 -0.38,0.257 -0.881,0.682 -0.91,1.061 -0.518,7.161 -7.226,8.005 -11.665,10.212 -3.753,1.864 -7.299,3.166 -10.612,6.222 -4.872,4.488 -11.191,7.36 -16.614,11.31 -2.583,1.881 -4.268,4.969 -6.797,6.956 -3.807,2.987 -8.172,5.263 -11.979,8.254 -4.002,3.146 -7.821,6.585 -11.351,10.253 -2.652,2.758 -4.892,5.969 -6.957,9.204 -0.792,1.24 -0.392,3.187 -0.93,4.664 -0.388,1.069 -1.546,2.778 -2.158,2.693 -3.089,-0.424 -3.823,1.689 -3.59,3.635 0.392,3.313 0.049,6.006 -2.836,8.046 -0.367,0.261 -0.375,1.028 -0.689,1.991 1.089,-0.257 1.783,-0.42 3.007,-0.71 -0.653,0.886 -0.934,1.379 -1.318,1.771 -1.722,1.734 -3.513,3.276 -1.407,6.108 0.379,0.51 -0.922,2.974 -2.007,3.721 -2.917,1.999 -5.663,4.002 -6.785,7.544 -0.159,0.502 -0.18,1.048 -0.396,2.366 1.697,-1.624 2.799,-2.685 3.905,-3.741 0.331,0.245 0.657,0.494 0.987,0.738 -4.19,6.854 -11.436,11.869 -12.66,20.755 l 4.492,-4.142 c 0.318,0.18 0.632,0.359 0.951,0.539 -1.387,2.848 -2.518,5.863 -4.231,8.503 -1.718,2.644 -3.921,4.843 0.118,7.352 0.485,0.302 0.604,2.224 0.147,2.856 -3.501,4.863 -1.408,10.225 -1.877,16.132 1.542,-1.689 2.591,-2.839 4.472,-4.904 0.355,2.105 1.048,3.484 0.681,4.467 -2.378,6.41 -0.889,12.966 -1.077,19.458 -0.069,2.424 -0.265,5.084 -1.301,7.197 -5.349,10.946 -12.893,20.225 -22.13,28.185 -6.948,5.985 -13.436,12.37 -19.478,19.38 -8.58,9.947 -14.823,21.126 -21.31,32.383 -3.848,6.675 -6.328,13.701 -8.181,20.771 -2.236,8.531 -2.717,17.589 -3.305,26.467 -0.755,11.384 2.795,22.122 5.969,32.885 1.849,6.263 3.252,12.656 4.941,18.973 0.396,1.48 0.877,3.047 1.738,4.283 4.749,6.818 9.702,13.497 14.439,20.323 2.848,4.104 5.308,8.478 8.193,12.558 1.391,1.971 3.219,3.696 5.083,5.251 3.835,3.199 7.634,6.5 11.799,9.217 5.994,3.913 12.326,7.308 18.474,10.992 6.39,3.826 13.738,3.578 20.69,5.051 8.405,1.783 15.851,-0.743 23.28,-4.386 6.524,-3.199 8.046,-8.973 8.233,-15.149 0.155,-5.011 -2.652,-9.282 -6.838,-11.901 -1.616,-1.012 -4.831,-0.812 -6.593,0.151 -1.607,0.877 -2.587,3.435 -3.207,5.446 -0.653,2.122 0.249,5.695 -0.938,6.471 -2.509,1.637 -5.924,2.485 -8.988,2.546 -8.638,0.172 -15.757,-3.737 -22.065,-9.371 -1.048,-0.938 -2.407,-1.539 -3.644,-2.257 -5.504,-3.187 -10.179,-7.201 -13.896,-12.473 -3.562,-5.051 -7.756,-9.653 -11.448,-14.622 -2.66,-3.583 -5.675,-7.156 -7.271,-11.225 -4.019,-10.24 -7.748,-20.645 -10.751,-31.22 -1.758,-6.193 -2.489,-12.84 -2.603,-19.299 -0.139,-7.69 1.375,-15.247 3.007,-22.885 2.534,-11.836 9.825,-20.959 15.096,-31.199 1.873,-3.636 5.724,-6.324 8.898,-9.196 7.213,-6.536 14.395,-13.126 21.918,-19.291 5.5,-4.508 11.42,-8.526 17.356,-12.464 3.313,-2.195 6.928,-4.056 10.628,-5.5 1.669,-0.652 3.917,0.347 5.827,0.069 1.102,-0.159 2.015,-1.428 3.072,-2.097 1.702,-1.077 3.452,-2.069 5.178,-3.097 0.277,0.253 0.559,0.506 0.836,0.759 -0.416,1.289 -0.833,2.574 -1.24,3.843 1.644,-0.787 3.125,-1.497 4.651,-2.231 0.139,4.545 0.233,7.711 0.327,10.873 0.351,0.045 0.706,0.094 1.057,0.139 1.404,-1.31 2.783,-2.656 4.219,-3.929 3.774,-3.346 6.61,-2.302 8.739,2.252 2.371,5.063 3.411,10.686 8.131,14.807 4.476,3.908 1.918,9.29 0.498,14.088 -0.739,2.493 -1.758,4.994 -1.942,7.54 -0.494,6.891 2.824,11.975 8.258,15.94 2.179,1.591 3.374,0.845 4.549,-1.175 1.946,-3.346 2.538,-6.643 0.363,-10.131 -0.555,-0.89 -0.816,-1.958 -1.232,-2.999 1.566,-0.065 3.847,0.359 4.182,-0.265 1.094,-2.032 1.763,-4.402 2.069,-6.716 0.596,-4.492 1.713,-5.59 6.32,-5.153 1.053,0.098 2.064,0.588 3.121,0.759 2.416,0.392 4.517,0.583 4.521,-3.052 0,-2.195 0.844,-4.406 1.432,-6.577 0.812,-2.994 3.146,-3.133 5.704,-2.962 2.599,0.176 5.243,0.465 7.801,0.159 3.333,-0.4 6.055,-1.93 7.254,-5.5 0.383,-1.139 1.571,-2.012 2.636,-3.305 -0.804,-0.551 -1.652,-0.938 -2.228,-1.579 -0.58,-0.648 -1.286,-1.562 -1.245,-2.321 0.273,-4.798 5.732,-9.029 10.567,-8.34 0.351,0.049 0.738,0.326 1.032,0.245 3.097,-0.877 6.173,-1.824 9.266,-2.709 0.877,-0.253 1.787,-0.498 2.688,-0.535 1.873,-0.073 3.782,0.204 5.623,-0.036 3.178,-0.42 6.226,-1.294 9.216,0.979 1.661,1.261 3.219,0.697 4.264,-1.461 1.885,-3.9 4.174,-4.998 8.384,-4.378 0.628,0.094 1.485,0.489 1.702,0.979 0.188,0.424 -0.294,1.24 -0.632,1.787 -0.698,1.13 -1.498,2.194 -2.301,3.354 3.88,-1.24 7.185,-2.098 10.318,-3.37 2.081,-0.845 3.811,-2.844 5.912,-3.276 1.624,-0.335 3.737,0.693 5.349,1.611 2.134,1.216 3.721,1.82 6.12,0.139 2.13,-1.497 4.929,-2.231 7.54,-2.741 0.747,-0.147 2.644,1.619 2.701,2.587 0.037,0.607 0.049,1.216 0.078,1.823 -1.089,3.383 -1.228,7.115 -0.237,10.763 0.151,0.56 0.306,1.118 0.457,1.682 0.004,0.767 0.008,1.538 0.016,2.301 0.049,0.024 0.106,0.049 0.159,0.073 -0.171,4.231 -0.343,8.458 -0.51,12.689 -0.792,0.665 -1.799,1.175 -2.746,1.583 -2.521,1.093 -5.141,1.971 -6.687,2.55 -2.276,0.429 -3.558,0.669 -4.839,0.905 0.6,0.979 1.204,1.959 2.346,3.815 -0.188,1.733 -1.747,3.524 -4.362,4.712 -4.304,1.95 -5.614,4.011 -4.378,6.442 1.139,2.24 4.876,2.162 8.385,0.371 4.834,-2.468 9.816,-4.671 14.823,-6.776 2.705,-1.139 6.728,1.313 7.711,5.022 0.951,3.59 3.007,3.664 5.589,2.448 2.697,-1.273 5.067,-3.538 7.858,-4.219 3.04,-0.743 6.446,-0.494 9.616,-0.078 4.655,0.616 8.479,4.17 13.529,3.9 2.481,-0.13 4.121,-0.958 5.137,-3.101 1.514,-3.187 3.75,-3.312 6.435,-1.583 2.607,1.677 5.092,3.578 7.829,5.002 1.302,0.678 3.064,0.474 4.615,0.669 -0.144,-1.272 -0.217,-2.558 -0.441,-3.818 -0.958,-5.369 -4.854,-8.168 -8.723,-11 -0.127,-3.039 -2.158,-6.218 -5.255,-6.789 -0.616,-0.82 -1.392,-1.555 -2.297,-2.154 -4.831,-3.198 -7.234,-8.698 -7.304,-14.264 0.641,-0.236 1.232,-0.587 1.771,-1.004 3.778,1.347 7.165,3.623 10.054,6.646 0.452,0.723 0.873,1.359 1.334,1.963 2.823,3.68 5.573,7.441 8.687,10.869 1.407,1.55 3.41,3.272 5.324,3.635 0.6,0.931 1.473,1.763 2.685,2.412 0.167,0.089 0.33,0.15 0.498,0.228 0.971,1.686 2.591,2.991 4.594,3.407 1.444,0.302 2.893,0.6 4.341,0.901 2.016,0.421 4.039,-0.04 5.639,-1.13 1.146,0.596 2.289,1.216 3.428,1.853 1.644,0.918 3.884,0.808 5.858,1.089 1.522,0.217 3.056,0.339 4.59,0.449 0.649,0.045 1.481,0.204 1.954,-0.062 0.233,0.114 0.466,0.213 0.698,0.298 0.285,0.204 0.588,0.404 0.926,0.584 8.16,4.357 14.917,-8.295 6.761,-12.652 -0.33,-0.176 -0.661,-0.318 -0.983,-0.44 -0.281,-0.204 -0.579,-0.4 -0.914,-0.575 -0.163,-0.086 -0.326,-0.159 -0.485,-0.229 -0.081,-0.144 -0.163,-0.286 -0.253,-0.425 -0.547,-1.86 -1.555,-3.545 -2.974,-5.006 -0.09,-2.162 -1.184,-4.276 -3.681,-5.61 -1.812,-0.967 -3.554,-1.093 -5.08,-0.661 -0.579,-1.081 -1.488,-2.06 -2.803,-2.819 -1.366,-0.791 -2.737,-1.578 -4.104,-2.37 l 0.258,-0.62 -2.424,-1.298 c -2.428,-2.044 -5.255,-3.618 -8.458,-4.63 2.848,-1.991 4.741,-4.606 8.303,-2.555 0.302,0.176 0.689,0.351 1.016,0.314 4.183,-0.49 8.467,-0.616 12.489,-1.705 2.057,-0.56 3.574,-2.946 5.451,-4.358 2.289,-1.722 4.251,-3.541 4.427,-6.675 0.036,-0.645 0.522,-1.692 0.991,-1.812 2.941,-0.746 3.704,-3.137 4.876,-5.479 0.979,-1.962 2.655,-1.321 3.573,0.352 0.878,1.595 1.901,3.211 3.75,2.089 0.926,-0.563 1.444,-2.469 1.437,-3.762 -0.013,-3.093 1.954,-4.847 4.088,-6.21 2.027,-1.297 3.215,0.155 3.855,2.191 1.497,4.745 1.534,4.725 6.267,2.962 1.804,-0.673 3.623,-1.305 5.438,-1.942 1.808,-0.632 2.934,-0.273 4.085,1.583 1.672,2.697 4.002,4.978 5.993,7.482 1.416,1.783 2.656,3.709 4.121,5.447 0.819,0.979 2.04,1.611 2.893,2.57 1.86,2.089 3.623,4.264 5.377,6.442 1.909,2.374 3.513,5.06 5.7,7.136 4.394,4.178 8.796,8.479 13.77,11.881 3.681,2.518 8.278,3.696 12.465,5.468 0.738,0.313 1.477,0.624 2.215,0.938 1.89,0.808 3.774,1.632 5.676,2.415 0.652,0.27 1.403,0.322 2.016,0.648 5.173,2.758 12.321,2.13 16.491,-1.791 0.999,-0.938 1.521,-2.652 1.767,-4.092 1.665,-9.698 3.207,-19.421 4.762,-29.136 0.146,-0.93 0.069,-1.893 0.171,-2.831 0.42,-3.864 0.869,-7.728 1.318,-11.587 0.069,-0.592 0.42,-1.249 0.257,-1.747 -0.281,-0.849 -0.457,-1.693 -0.559,-2.529 1.13,-6.226 2.264,-12.452 3.395,-18.678 4.079,-1.893 5.01,-5.671 5.891,-9.506 0.184,-0.804 -0.053,-2.187 0.352,-2.383 3.827,-1.861 2.231,-6.083 3.966,-8.841 0.542,-0.861 0.175,-2.24 0.473,-3.317 0.339,-1.22 0.861,-2.411 1.474,-3.521 0.575,-1.044 1.432,-1.93 2.048,-2.954 1.95,-3.244 1.555,-6.345 -0.041,-9.739 -1.004,-2.142 -0.6,-4.467 1.853,-6.242 3.904,-2.832 4.79,-7.242 5.81,-11.763 0.792,-3.513 1.42,-7.629 5.618,-9.461 4.619,-2.02 9.037,-4.541 13.741,-6.308 3.587,-1.347 7.581,-1.571 11.229,-2.799 8.503,-2.86 13.578,-9.249 16.679,-17.356 1.346,-3.587 -1.523,-6.199 -6.141,-6.402 z m -54.896,-2.473 c -0.106,-0.494 -0.212,-0.987 -0.318,-1.485 0.27,0.261 0.539,0.526 0.816,0.795 -0.172,0.229 -0.335,0.458 -0.498,0.69 z"
   id="path89"
   style="fill:#db7c4d;fill-opacity:1" />
	</g>
</g>
<g
   id="g95"
   transform="translate(-0.00328631,-68.243)">
</g>
<g
   id="g97"
   transform="translate(-0.00328631,-68.243)">
</g>
<g
   id="g99"
   transform="translate(-0.00328631,-68.243)">
</g>
<g
   id="g101"
   transform="translate(-0.00328631,-68.243)">
</g>
<g
   id="g103"
   transform="translate(-0.00328631,-68.243)">
</g>
<g
   id="g105"
   transform="translate(-0.00328631,-68.243)">
</g>
<g
   id="g107"
   transform="translate(-0.00328631,-68.243)">
</g>
<g
   id="g109"
   transform="translate(-0.00328631,-68.243)">
</g>
<g
   id="g111"
   transform="translate(-0.00328631,-68.243)">
</g>
<g
   id="g113"
   transform="translate(-0.00328631,-68.243)">
</g>
<g
   id="g115"
   transform="translate(-0.00328631,-68.243)">
</g>
<g
   id="g117"
   transform="translate(-0.00328631,-68.243)">
</g>
<g
   id="g119"
   transform="translate(-0.00328631,-68.243)">
</g>
<g
   id="g121"
   transform="translate(-0.00328631,-68.243)">
</g>
<g
   id="g123"
   transform="translate(-0.00328631,-68.243)">
</g>
</svg>
